#N canvas 957 208 704 577 12;
#X declare -path Abstractions;
#X obj 39 41 r _bang;
#X obj 162 15 notein;
#X obj 204 105 mtof;
#X obj 300 99 trigger b;
#X obj 202 211 *~;
#X obj 333 147 1;
#X obj 376 161 0;
#X obj 337 54 / 127;
#X obj 442 114 100;
#X obj 479 116 50;
#X obj 511 117 100;
#X obj 542 118 50;
#X obj 499 57 loadbang;
#X obj 203 145 osc~;
#X obj 371 136 del 200;
#X obj 203 249 *~ 0.3;
#X obj 205 306 dac~;
#X obj 68 336 declare -path Abstractions;
#X obj 367 246 adsr;
#X connect 1 0 2 0;
#X connect 1 0 3 0;
#X connect 1 1 7 0;
#X connect 2 0 13 0;
#X connect 3 0 5 0;
#X connect 3 0 14 0;
#X connect 4 0 15 0;
#X connect 5 0 18 0;
#X connect 6 0 18 0;
#X connect 7 0 18 1;
#X connect 8 0 18 2;
#X connect 9 0 18 3;
#X connect 10 0 18 4;
#X connect 11 0 18 5;
#X connect 12 0 8 0;
#X connect 12 0 9 0;
#X connect 12 0 10 0;
#X connect 12 0 11 0;
#X connect 13 0 4 0;
#X connect 14 0 6 0;
#X connect 15 0 16 0;
#X connect 15 0 16 1;
#X connect 18 0 4 1;
