#N canvas 1106 188 704 577 12;
#X declare -path Abstractions;
#X obj 39 41 r _bang;
#X obj 162 15 notein;
#X obj 204 105 mtof;
#X obj 300 99 trigger b;
#X obj 202 211 *~;
#X obj 333 147 1;
#X obj 376 161 0;
#X obj 337 54 / 127;
#X obj 442 114 100;
#X obj 479 116 50;
#X obj 511 117 100;
#X obj 542 118 50;
#X obj 499 57 loadbang;
#X obj 371 136 del 200;
#X obj 170 376 *~ 0.3;
#X obj 172 433 dac~;
#X obj 29 483 declare -path Abstractions;
#X obj 367 246 adsr, f 15;
#X obj 216 301 rev2~, f 22;
#X obj 247 265 100;
#X obj 298 255 30;
#X obj 217 262 80;
#X obj 203 145 tri_saw~;
#X connect 1 0 2 0;
#X connect 1 0 3 0;
#X connect 1 1 7 0;
#X connect 2 0 22 0;
#X connect 3 0 5 0;
#X connect 3 0 13 0;
#X connect 4 0 18 0;
#X connect 4 0 14 0;
#X connect 5 0 17 0;
#X connect 6 0 17 0;
#X connect 7 0 17 1;
#X connect 8 0 17 2;
#X connect 9 0 17 3;
#X connect 10 0 17 4;
#X connect 11 0 17 5;
#X connect 12 0 8 0;
#X connect 12 0 9 0;
#X connect 12 0 10 0;
#X connect 12 0 11 0;
#X connect 13 0 6 0;
#X connect 14 0 15 0;
#X connect 14 0 15 1;
#X connect 17 0 4 1;
#X connect 18 0 14 0;
#X connect 19 0 18 2;
#X connect 20 0 18 4;
#X connect 21 0 18 1;
#X connect 22 0 4 0;
