#N canvas 761 0 766 772 12;
#X declare -path Abstractions;
#X obj 133 -17 notein;
#X obj 123 131 mtof;
#X obj 204 33 trigger b;
#X obj 119 206 *~;
#X obj 234 87 1;
#X obj 279 88 0;
#X obj 348 19 / 127;
#X obj 407 140 50;
#X obj 439 141 100;
#X obj 470 142 50;
#X obj 426 86 loadbang;
#X obj 172 433 dac~;
#X obj 29 483 declare -path Abstractions;
#X obj 331 181 adsr, f 15;
#X obj 274 63 del 150;
#X obj 370 138 100;
#X obj 166 396 *~ 0.2;
#X obj 119 165 squ~;
#X obj 149 308 lop~ 2000;
#X obj 219 223 r bassFilterCutoff;
#X connect 0 0 1 0;
#X connect 0 0 2 0;
#X connect 0 1 6 0;
#X connect 1 0 17 0;
#X connect 2 0 4 0;
#X connect 2 0 14 0;
#X connect 3 0 18 0;
#X connect 4 0 13 0;
#X connect 5 0 13 0;
#X connect 6 0 13 1;
#X connect 7 0 13 3;
#X connect 8 0 13 4;
#X connect 9 0 13 5;
#X connect 10 0 7 0;
#X connect 10 0 8 0;
#X connect 10 0 9 0;
#X connect 10 0 15 0;
#X connect 13 0 3 1;
#X connect 14 0 5 0;
#X connect 15 0 13 2;
#X connect 16 0 11 0;
#X connect 16 0 11 1;
#X connect 17 0 3 0;
#X connect 18 0 16 0;
#X connect 19 0 18 1;
