#N canvas 1113 218 742 632 12;
#X declare -path Abstractions;
#X obj 133 -17 notein;
#X obj 123 131 mtof;
#X obj 204 33 trigger b;
#X obj 120 194 *~;
#X obj 234 87 1;
#X obj 279 88 0;
#X obj 348 19 / 127;
#X obj 407 140 50;
#X obj 439 141 100;
#X obj 470 142 50;
#X obj 426 86 loadbang;
#X obj 172 443 dac~;
#X obj 29 483 declare -path Abstractions;
#X obj 331 181 adsr, f 15;
#X obj 121 165 saw~;
#X obj 127 348 *~ 0.2;
#X obj 216 300 rev2~ 100 90 3000 20, f 22;
#X obj 170 216 r filterCutoff;
#X obj 370 138 250;
#X obj 117 258 lop~ 200;
#X obj 274 63 del 250;
#X obj 200 356 *~ 0.4;
#X obj 267 360 *~ 0.4;
#X connect 0 0 1 0;
#X connect 0 0 2 0;
#X connect 0 1 6 0;
#X connect 1 0 14 0;
#X connect 2 0 4 0;
#X connect 2 0 20 0;
#X connect 3 0 19 0;
#X connect 4 0 13 0;
#X connect 5 0 13 0;
#X connect 6 0 13 1;
#X connect 7 0 13 3;
#X connect 8 0 13 4;
#X connect 9 0 13 5;
#X connect 10 0 7 0;
#X connect 10 0 8 0;
#X connect 10 0 9 0;
#X connect 10 0 18 0;
#X connect 13 0 3 1;
#X connect 14 0 3 0;
#X connect 15 0 11 0;
#X connect 15 0 11 1;
#X connect 16 0 21 0;
#X connect 16 1 22 0;
#X connect 17 0 19 1;
#X connect 18 0 13 2;
#X connect 19 0 15 0;
#X connect 19 0 16 0;
#X connect 20 0 5 0;
#X connect 21 0 11 0;
#X connect 22 0 11 1;
